<?xml version="1.0" encoding="UTF-8" standalone="no"?>
<svg width="743px" height="447px" viewBox="0 0 743 447" version="1.1" xmlns="http://www.w3.org/2000/svg" xmlns:xlink="http://www.w3.org/1999/xlink">
    <!-- Generator: Sketch 3.7 (28169) - http://www.bohemiancoding.com/sketch -->
    <title>Group</title>
    <desc>Created with Sketch.</desc>
    <defs>
        <rect id="path-1" x="0" y="0" width="36" height="163"></rect>
        <mask id="mask-2" maskContentUnits="userSpaceOnUse" maskUnits="objectBoundingBox" x="0" y="0" width="36" height="163" fill="white">
            <use xlink:href="#path-1"></use>
        </mask>
        <rect id="path-3" x="245" y="0" width="36" height="163"></rect>
        <mask id="mask-4" maskContentUnits="userSpaceOnUse" maskUnits="objectBoundingBox" x="0" y="0" width="36" height="163" fill="white">
            <use xlink:href="#path-3"></use>
        </mask>
        <rect id="path-5" x="193" y="0" width="36" height="163"></rect>
        <mask id="mask-6" maskContentUnits="userSpaceOnUse" maskUnits="objectBoundingBox" x="0" y="0" width="36" height="163" fill="white">
            <use xlink:href="#path-5"></use>
        </mask>
        <rect id="path-7" x="141" y="0" width="36" height="163"></rect>
        <mask id="mask-8" maskContentUnits="userSpaceOnUse" maskUnits="objectBoundingBox" x="0" y="0" width="36" height="163" fill="white">
            <use xlink:href="#path-7"></use>
        </mask>
        <rect id="path-9" x="47" y="0" width="36" height="163"></rect>
        <mask id="mask-10" maskContentUnits="userSpaceOnUse" maskUnits="objectBoundingBox" x="0" y="0" width="36" height="163" fill="white">
            <use xlink:href="#path-9"></use>
        </mask>
        <rect id="path-11" x="94" y="0" width="36" height="163"></rect>
        <mask id="mask-12" maskContentUnits="userSpaceOnUse" maskUnits="objectBoundingBox" x="0" y="0" width="36" height="163" fill="white">
            <use xlink:href="#path-11"></use>
        </mask>
        <rect id="path-13" x="0" y="0" width="36" height="163"></rect>
        <mask id="mask-14" maskContentUnits="userSpaceOnUse" maskUnits="objectBoundingBox" x="0" y="0" width="36" height="163" fill="white">
            <use xlink:href="#path-13"></use>
        </mask>
        <rect id="path-15" x="245" y="0" width="36" height="163"></rect>
        <mask id="mask-16" maskContentUnits="userSpaceOnUse" maskUnits="objectBoundingBox" x="0" y="0" width="36" height="163" fill="white">
            <use xlink:href="#path-15"></use>
        </mask>
        <rect id="path-17" x="193" y="0" width="36" height="163"></rect>
        <mask id="mask-18" maskContentUnits="userSpaceOnUse" maskUnits="objectBoundingBox" x="0" y="0" width="36" height="163" fill="white">
            <use xlink:href="#path-17"></use>
        </mask>
        <rect id="path-19" x="141" y="0" width="36" height="163"></rect>
        <mask id="mask-20" maskContentUnits="userSpaceOnUse" maskUnits="objectBoundingBox" x="0" y="0" width="36" height="163" fill="white">
            <use xlink:href="#path-19"></use>
        </mask>
        <rect id="path-21" x="47" y="0" width="36" height="163"></rect>
        <mask id="mask-22" maskContentUnits="userSpaceOnUse" maskUnits="objectBoundingBox" x="0" y="0" width="36" height="163" fill="white">
            <use xlink:href="#path-21"></use>
        </mask>
        <rect id="path-23" x="94" y="0" width="36" height="163"></rect>
        <mask id="mask-24" maskContentUnits="userSpaceOnUse" maskUnits="objectBoundingBox" x="0" y="0" width="36" height="163" fill="white">
            <use xlink:href="#path-23"></use>
        </mask>
        <rect id="path-25" x="379" y="28" width="98" height="185" rx="8"></rect>
        <mask id="mask-26" maskContentUnits="userSpaceOnUse" maskUnits="objectBoundingBox" x="0" y="0" width="98" height="185" fill="white">
            <use xlink:href="#path-25"></use>
        </mask>
        <rect id="path-27" x="0" y="28" width="299" height="185" rx="8"></rect>
        <mask id="mask-28" maskContentUnits="userSpaceOnUse" maskUnits="objectBoundingBox" x="0" y="0" width="299" height="185" fill="white">
            <use xlink:href="#path-27"></use>
        </mask>
    </defs>
    <g id="Page-1" stroke="none" stroke-width="1" fill="none" fill-rule="evenodd">
        <g id="Group" transform="translate(1.000000, -7.000000)">
            <g id="Group-2" transform="translate(7.000000, 38.000000)" stroke="#979797" stroke-width="2">
                <use id="Rectangle-4" mask="url(#mask-2)" fill="#9B9B9B" xlink:href="#path-1"></use>
                <use id="Rectangle-4" mask="url(#mask-4)" fill="#9BD333" xlink:href="#path-3"></use>
                <use id="Rectangle-4" mask="url(#mask-6)" fill="#9BD333" xlink:href="#path-5"></use>
                <use id="Rectangle-4" mask="url(#mask-8)" fill="#9BD333" xlink:href="#path-7"></use>
                <use id="Rectangle-4" mask="url(#mask-10)" fill="#9B9B9B" xlink:href="#path-9"></use>
                <use id="Rectangle-4" mask="url(#mask-12)" fill="#9BD333" xlink:href="#path-11"></use>
            </g>
            <g id="Group-2" transform="translate(387.000000, 38.000000)" stroke="#979797" stroke-width="2">
                <use id="Rectangle-4" mask="url(#mask-14)" fill="#9B9B9B" xlink:href="#path-13"></use>
                <use id="Rectangle-4" mask="url(#mask-16)" fill="#9BD333" xlink:href="#path-15"></use>
                <use id="Rectangle-4" mask="url(#mask-18)" fill="#9BD333" xlink:href="#path-17"></use>
                <use id="Rectangle-4" mask="url(#mask-20)" fill="#9BD333" xlink:href="#path-19"></use>
                <use id="Rectangle-4" mask="url(#mask-22)" fill="#9B9B9B" xlink:href="#path-21"></use>
                <use id="Rectangle-4" mask="url(#mask-24)" fill="#9BD333" xlink:href="#path-23"></use>
            </g>
            <use id="Rectangle-13" stroke="#F6A623" mask="url(#mask-26)" stroke-width="8" xlink:href="#path-25"></use>
            <use id="Rectangle-14" stroke="#F6A623" mask="url(#mask-28)" stroke-width="6" xlink:href="#path-27"></use>
            <path d="M144.5,225.5 L144.5,253.5" id="Line" stroke="#000000" stroke-width="5" stroke-linecap="square" fill="#000000"></path>
            <path id="Line-decoration-1" d="M144.5,253.5 L147.5,242.7 L141.5,242.7 L144.5,253.5 Z" stroke="#000000" stroke-width="5" stroke-linecap="square" fill="#000000"></path>
            <ellipse id="Oval-1" stroke="#000000" fill="#000000" cx="143" cy="293.5" rx="21" ry="20.5"></ellipse>
            <path d="M71,384 C82.5979797,384 92,374.821837 92,363.5 C92,352.178163 82.5979797,343 71,343 C59.4020203,343 50,352.178163 50,363.5 C50,374.821837 59.4020203,384 71,384 Z" id="Oval-1" stroke="#000000" fill="#000000"></path>
            <path d="M575,384 C586.59798,384 596,374.821837 596,363.5 C596,352.178163 586.59798,343 575,343 C563.40202,343 554,352.178163 554,363.5 C554,374.821837 563.40202,384 575,384 Z" id="Oval-1" stroke="#000000" fill="#000000"></path>
            <path d="M477,384 C488.59798,384 498,374.821837 498,363.5 C498,352.178163 488.59798,343 477,343 C465.40202,343 456,352.178163 456,363.5 C456,374.821837 465.40202,384 477,384 Z" id="Oval-1" stroke="#000000" fill="#000000"></path>
            <path d="M21,453 C32.5979797,453 42,443.821837 42,432.5 C42,421.178163 32.5979797,412 21,412 C9.40202025,412 0,421.178163 0,432.5 C0,443.821837 9.40202025,453 21,453 Z" id="Oval-1" stroke="#000000" fill="#000000"></path>
            <path d="M224,384 C235.59798,384 245,374.821837 245,363.5 C245,352.178163 235.59798,343 224,343 C212.40202,343 203,352.178163 203,363.5 C203,374.821837 212.40202,384 224,384 Z" id="Oval-1" stroke="#000000" fill="#000000"></path>
            <path d="M519,304 C530.59798,304 540,294.821837 540,283.5 C540,272.178163 530.59798,263 519,263 C507.40202,263 498,272.178163 498,283.5 C498,294.821837 507.40202,304 519,304 Z" id="Oval-1" stroke="#000000" fill="#000000"></path>
            <path d="M113,453 C124.59798,453 134,443.821837 134,432.5 C134,421.178163 124.59798,412 113,412 C101.40202,412 92,421.178163 92,432.5 C92,443.821837 101.40202,453 113,453 Z" id="Oval-1" stroke="#000000" fill="#000000"></path>
            <path d="M278,453 C289.59798,453 299,443.821837 299,432.5 C299,421.178163 289.59798,412 278,412 C266.40202,412 257,421.178163 257,432.5 C257,443.821837 266.40202,453 278,453 Z" id="Oval-1" stroke="#000000" fill="#000000"></path>
            <path d="M185,453 C196.59798,453 206,443.821837 206,432.5 C206,421.178163 196.59798,412 185,412 C173.40202,412 164,421.178163 164,432.5 C164,443.821837 173.40202,453 185,453 Z" id="Oval-1" stroke="#000000" fill="#000000"></path>
            <path d="M437.5,221.5 L476.202651,258.115765" id="Line" stroke="#000000" stroke-width="5" stroke-linecap="square" fill="#000000"></path>
            <path id="Line-decoration-1" d="M476.202651,258.115765 L470.419066,248.514195 L466.29556,252.872716 L476.202651,258.115765 Z" stroke="#000000" stroke-width="5" stroke-linecap="square" fill="#000000"></path>
            <path d="M79.5,347.5 L129.5,305.5" id="Line" stroke="#000000" stroke-width="3" stroke-linecap="square"></path>
            <path d="M157.5,301.5 L217.5,361.5" id="Line" stroke="#000000" stroke-width="3" stroke-linecap="square"></path>
            <path d="M29.5,423.5 L61.5,372.5" id="Line" stroke="#000000" stroke-width="3" stroke-linecap="square"></path>
            <path d="M196.5,419.5 L220.5,373.5" id="Line" stroke="#000000" stroke-width="3" stroke-linecap="square"></path>
            <path d="M237.5,378.5 L273.5,432.5" id="Line" stroke="#000000" stroke-width="3" stroke-linecap="square"></path>
            <path d="M79.5,374.5 L107.5,424.5" id="Line" stroke="#000000" stroke-width="3" stroke-linecap="square"></path>
            <path d="M513.5,294.5 L483.5,351.5" id="Line" stroke="#000000" stroke-width="3" stroke-linecap="square"></path>
            <path d="M527.5,296.5 L565.5,355.5" id="Line" stroke="#000000" stroke-width="3" stroke-linecap="square"></path>
            <text id="Regular-Repairs" font-family="Arial-Black, Arial Black" font-size="20" font-weight="700" fill="#000000">
                <tspan x="50" y="22">Regular Repairs</tspan>
            </text>
            <text id="Incremental-Repairs" font-family="Arial-Black, Arial Black" font-size="20" font-weight="700" fill="#000000">
                <tspan x="427" y="22">Incremental Repairs</tspan>
            </text>
            <text id="Merkel-tree-construc" font-family="Arial-BoldMT, Arial" font-size="20" font-weight="bold" fill="#000000">
                <tspan x="183" y="258">Merkel tree </tspan>
                <tspan x="183" y="280">constructed from </tspan>
                <tspan x="183" y="302">all sstables</tspan>
            </text>
            <text id="Merkel-tree-construc" font-family="Arial-BoldMT, Arial" font-size="20" font-weight="bold" fill="#000000">
                <tspan x="554" y="253">Merkel tree </tspan>
                <tspan x="554" y="275">constructed from </tspan>
                <tspan x="554" y="297">unrepaired sstables</tspan>
            </text>
        </g>
    </g>
</svg>